<svg xmlns="http://www.w3.org/2000/svg" xmlns:xlink="http://www.w3.org/1999/xlink" version="1.1" x="0px" y="0px" viewBox="0 0 100 125" style="enable-background:new 0 0 100 100;" xml:space="preserve"><path d="M81.8,24H62c-0.8-5.8-5.8-10.4-11.9-10.4h-0.2c-6.1,0-11.1,4.5-11.9,10.4H18.2c-1.6,0-3.1,1.2-3.2,2.8  c-0.1,1.7,1.3,3.2,3,3.2h4.4v46.4c0,5.5,4.5,10,10,10h35.1c5.5,0,10-4.5,10-10V30H82c1.7,0,3.1-1.4,3-3.2C84.9,25.2,83.5,24,81.8,24  z M43.9,67.5c0,1.7-1.3,3-3,3s-3-1.3-3-3V43.1c0-1.7,1.3-3,3-3s3,1.3,3,3V67.5z M44.1,24c0.7-2.5,3-4.4,5.8-4.4h0.2  c2.7,0,5.1,1.8,5.8,4.4H44.1z M62.1,67.5c0,1.7-1.3,3-3,3s-3-1.3-3-3V43.1c0-1.7,1.3-3,3-3s3,1.3,3,3V67.5z"/></svg>