 <svg version="1.0" xmlns="http://www.w3.org/2000/svg" width="700.000000pt" height="700.000000pt" viewBox="0 0 700.000000 700.000000" preserveAspectRatio="xMidYMid meet">
<g transform="translate(0.000000,700.000000) scale(0.100000,-0.100000)" fill="#000000" stroke="none">
<path d="M3705 4235 c-7 -11 -16 -39 -20 -62 -3 -22 -13 -49 -20 -60 -8 -10
-15 -29 -15 -43 0 -14 -9 -43 -20 -65 -11 -22 -19 -47 -20 -55 0 -9 -9 -33
-20 -55 -11 -22 -20 -51 -20 -66 0 -15 -7 -32 -15 -39 -8 -7 -15 -24 -15 -39
-1 -14 -9 -44 -20 -66 -11 -22 -19 -48 -20 -58 0 -11 -6 -31 -14 -45 -8 -15
-17 -43 -21 -63 -3 -21 -12 -42 -20 -49 -8 -7 -15 -26 -15 -43 0 -17 -6 -38
-14 -46 -7 -9 -18 -34 -24 -56 -6 -22 -22 -71 -37 -110 -14 -38 -37 -106 -51
-150 -15 -44 -32 -93 -40 -110 -7 -16 -17 -46 -23 -65 -5 -19 -28 -87 -51
-150 -22 -63 -47 -135 -55 -160 -17 -59 -75 -227 -90 -265 -41 -101 -68 -205
-56 -217 9 -10 263 -14 278 -5 6 4 13 17 16 29 3 13 17 55 31 93 15 39 33 90
40 115 21 67 45 133 56 152 6 10 10 25 10 34 0 8 8 36 19 62 17 44 56 158 88
262 8 25 20 59 27 75 14 33 70 195 91 265 7 25 25 77 40 115 14 39 30 84 35
100 4 17 14 46 20 65 7 19 20 58 30 85 9 28 22 66 29 85 7 19 19 55 27 80 8
25 18 54 23 65 4 11 20 56 35 100 14 44 37 112 52 150 14 39 30 88 35 110 6
22 17 47 25 57 9 9 14 27 12 40 -3 23 -4 23 -147 23 -133 0 -145 -2 -156 -20z"></path>
<path d="M4054 3532 l1 -160 28 -22 c26 -20 50 -35 167 -97 25 -13 52 -27 60
-32 8 -5 26 -14 40 -20 14 -6 70 -36 125 -66 55 -31 114 -63 130 -71 48 -24
76 -41 86 -51 15 -15 -26 -46 -131 -100 -52 -27 -113 -61 -135 -75 -22 -14
-51 -29 -64 -33 -13 -4 -45 -19 -70 -34 -60 -35 -201 -108 -222 -114 -15 -5
-16 -26 -14 -174 1 -92 3 -169 4 -170 2 -3 213 107 226 117 6 5 64 36 130 70
66 34 125 66 130 70 6 4 53 31 106 58 53 28 105 55 115 60 11 6 26 13 34 17 8
3 33 17 55 30 22 13 69 39 105 57 36 19 95 51 132 71 100 54 102 55 118 61 35
14 132 73 134 82 0 5 -14 14 -32 20 -17 5 -37 15 -44 22 -7 7 -18 12 -25 12
-8 0 -26 8 -41 18 -40 27 -60 38 -137 77 -38 19 -77 40 -85 44 -8 5 -22 12
-30 16 -8 3 -46 23 -85 45 -38 21 -84 46 -101 54 -17 7 -35 19 -38 25 -4 6
-14 11 -22 11 -8 0 -56 24 -107 53 -51 29 -117 65 -147 80 -30 16 -73 39 -95
51 -22 12 -80 44 -130 71 -49 26 -97 53 -105 61 -8 7 -27 15 -41 19 l-27 7 2
-160z"></path>
<path d="M2875 3670 c-4 -7 -22 -19 -39 -26 -17 -8 -49 -26 -71 -39 -22 -13
-47 -27 -55 -30 -8 -4 -24 -12 -35 -18 -33 -18 -156 -84 -220 -117 -33 -17
-67 -35 -75 -40 -8 -5 -22 -11 -30 -15 -8 -3 -33 -17 -55 -30 -22 -14 -53 -32
-70 -40 -29 -15 -46 -24 -82 -45 -10 -6 -29 -15 -43 -21 -14 -6 -32 -15 -40
-20 -8 -5 -28 -16 -45 -24 -27 -14 -39 -21 -85 -47 -8 -5 -29 -15 -47 -23 -17
-8 -34 -19 -38 -25 -3 -5 -14 -10 -24 -10 -10 0 -26 -9 -36 -20 -10 -11 -23
-20 -29 -20 -7 0 -29 -9 -51 -20 -22 -11 -45 -20 -52 -20 -7 0 -13 -6 -13 -13
0 -15 53 -57 72 -57 8 0 22 -6 33 -14 11 -7 59 -34 107 -59 47 -25 103 -56
123 -67 20 -11 98 -53 173 -92 76 -39 142 -74 147 -78 6 -4 66 -37 135 -73
121 -62 221 -116 305 -163 80 -45 167 -84 176 -78 5 3 9 76 9 164 l0 158 -42
25 c-46 26 -100 56 -243 132 -49 26 -94 51 -100 55 -5 4 -48 27 -95 50 -103
53 -140 77 -140 94 0 6 26 25 57 41 32 17 76 41 98 54 22 14 76 43 120 66 187
97 321 173 334 189 8 9 11 65 9 167 -3 134 -5 154 -20 157 -9 2 -19 -2 -23 -8z"></path>
</g>
</svg>